<?xml version="1.0" encoding="UTF-8"?>
<svg width="512" height="512" viewBox="0 0 512 512" fill="none" xmlns="http://www.w3.org/2000/svg">
  <path fill="#f3c06b" d="M256 64c-26.5 0-48 21.5-48 48v48h-48c-26.5 0-48 21.5-48 48v48h-48c-26.5 0-48 21.5-48 48s21.5 48 48 48h48v48c0 26.5 21.5 48 48 48h48v48c0 26.5 21.5 48 48 48s48-21.5 48-48v-48h48c26.5 0 48-21.5 48-48v-48h48c26.5 0 48-21.5 48-48s-21.5-48-48-48h-48v-48c0-26.5-21.5-48-48-48h-48v-48c0-26.5-21.5-48-48-48zm-48 144h96v96h-96v-96zm144 0h96v96h-96v-96zm-144 144h96v96h-96v-96zm144 0h96v96h-96v-96z"/>
</svg> 