<?xml version="1.0" encoding="UTF-8"?>
<svg xmlns="http://www.w3.org/2000/svg" viewBox="0 0 1200 600" width="1200" height="600">
  <!-- Background color -->
  <rect width="1200" height="600" fill="#1a1a1a"/>
  
  <!-- Medieval library/scriptorium scene -->
  <g>
    <!-- Stone wall background -->
    <rect x="0" y="0" width="1200" height="600" fill="#222" opacity="0.8"/>
    
    <!-- Stone pattern overlay -->
    <pattern id="stonePattern" width="100" height="50" patternUnits="userSpaceOnUse">
      <rect width="50" height="25" fill="#1e1e1e" stroke="#181818" stroke-width="1"/>
      <rect x="50" y="0" width="50" height="25" fill="#1c1c1c" stroke="#181818" stroke-width="1"/>
      <rect x="0" y="25" width="50" height="25" fill="#1a1a1a" stroke="#181818" stroke-width="1"/>
      <rect x="50" y="25" width="50" height="25" fill="#1d1d1d" stroke="#181818" stroke-width="1"/>
    </pattern>
    <rect x="0" y="0" width="1200" height="600" fill="url(#stonePattern)" opacity="0.3"/>
    
    <!-- Bookshelf left -->
    <rect x="50" y="50" width="300" height="500" fill="#2e2215" stroke="#1a1408" stroke-width="3"/>
    <rect x="60" y="60" width="280" height="80" fill="#241c10"/>
    <rect x="60" y="150" width="280" height="80" fill="#241c10"/>
    <rect x="60" y="240" width="280" height="80" fill="#241c10"/>
    <rect x="60" y="330" width="280" height="80" fill="#241c10"/>
    <rect x="60" y="420" width="280" height="80" fill="#241c10"/>
    
    <!-- Books on bookshelf left -->
    <g>
      <rect x="70" y="65" width="20" height="70" fill="#5d2e1c" stroke="#000" stroke-width="1"/>
      <rect x="95" y="65" width="15" height="70" fill="#6a3a1e" stroke="#000" stroke-width="1"/>
      <rect x="115" y="65" width="25" height="70" fill="#7a411c" stroke="#000" stroke-width="1"/>
      <rect x="145" y="65" width="10" height="70" fill="#845c24" stroke="#000" stroke-width="1"/>
      <rect x="160" y="65" width="30" height="70" fill="#5a3018" stroke="#000" stroke-width="1"/>
      <rect x="195" y="65" width="18" height="70" fill="#794826" stroke="#000" stroke-width="1"/>
      <rect x="218" y="65" width="22" height="70" fill="#694529" stroke="#000" stroke-width="1"/>
      <rect x="245" y="65" width="15" height="70" fill="#553720" stroke="#000" stroke-width="1"/>
      <rect x="265" y="65" width="25" height="70" fill="#623d25" stroke="#000" stroke-width="1"/>
      <rect x="295" y="65" width="38" height="70" fill="#7c4d23" stroke="#000" stroke-width="1"/>
      
      <!-- Second shelf -->
      <rect x="70" y="155" width="30" height="70" fill="#7a4a25" stroke="#000" stroke-width="1"/>
      <rect x="105" y="155" width="25" height="70" fill="#653c1e" stroke="#000" stroke-width="1"/>
      <rect x="135" y="155" width="15" height="70" fill="#573725" stroke="#000" stroke-width="1"/>
      <rect x="155" y="155" width="20" height="70" fill="#6a4c25" stroke="#000" stroke-width="1"/>
      <rect x="180" y="155" width="28" height="70" fill="#734a24" stroke="#000" stroke-width="1"/>
      <rect x="213" y="155" width="17" height="70" fill="#5d3d25" stroke="#000" stroke-width="1"/>
      <rect x="235" y="155" width="22" height="70" fill="#694529" stroke="#000" stroke-width="1"/>
      <rect x="265" y="155" width="35" height="70" fill="#7d4925" stroke="#000" stroke-width="1"/>
      <rect x="305" y="155" width="25" height="70" fill="#694529" stroke="#000" stroke-width="1"/>
      
      <!-- Third shelf -->
      <rect x="70" y="245" width="25" height="70" fill="#694529" stroke="#000" stroke-width="1"/>
      <rect x="100" y="245" width="30" height="70" fill="#7d4925" stroke="#000" stroke-width="1"/>
      <rect x="135" y="245" width="22" height="70" fill="#5e3b21" stroke="#000" stroke-width="1"/>
      <rect x="162" y="245" width="18" height="70" fill="#6e3e24" stroke="#000" stroke-width="1"/>
      <rect x="185" y="245" width="25" height="70" fill="#78421e" stroke="#000" stroke-width="1"/>
      <rect x="215" y="245" width="15" height="70" fill="#614020" stroke="#000" stroke-width="1"/>
      <rect x="235" y="245" width="20" height="70" fill="#724a29" stroke="#000" stroke-width="1"/>
      <rect x="260" y="245" width="35" height="70" fill="#5d3c20" stroke="#000" stroke-width="1"/>
      <rect x="300" y="245" width="30" height="70" fill="#694529" stroke="#000" stroke-width="1"/>
    </g>
    
    <!-- Bookshelf right -->
    <rect x="850" y="50" width="300" height="500" fill="#2e2215" stroke="#1a1408" stroke-width="3"/>
    <rect x="860" y="60" width="280" height="80" fill="#241c10"/>
    <rect x="860" y="150" width="280" height="80" fill="#241c10"/>
    <rect x="860" y="240" width="280" height="80" fill="#241c10"/>
    <rect x="860" y="330" width="280" height="80" fill="#241c10"/>
    <rect x="860" y="420" width="280" height="80" fill="#241c10"/>
    
    <!-- Books on bookshelf right -->
    <g>
      <rect x="870" y="65" width="30" height="70" fill="#694529" stroke="#000" stroke-width="1"/>
      <rect x="905" y="65" width="15" height="70" fill="#5d3c20" stroke="#000" stroke-width="1"/>
      <rect x="925" y="65" width="25" height="70" fill="#7a411c" stroke="#000" stroke-width="1"/>
      <rect x="955" y="65" width="20" height="70" fill="#845c24" stroke="#000" stroke-width="1"/>
      <rect x="980" y="65" width="30" height="70" fill="#5a3018" stroke="#000" stroke-width="1"/>
      <rect x="1015" y="65" width="18" height="70" fill="#794826" stroke="#000" stroke-width="1"/>
      <rect x="1038" y="65" width="22" height="70" fill="#694529" stroke="#000" stroke-width="1"/>
      <rect x="1065" y="65" width="25" height="70" fill="#553720" stroke="#000" stroke-width="1"/>
      <rect x="1095" y="65" width="25" height="70" fill="#623d25" stroke="#000" stroke-width="1"/>
      
      <!-- Second shelf -->
      <rect x="870" y="155" width="30" height="70" fill="#7a4a25" stroke="#000" stroke-width="1"/>
      <rect x="905" y="155" width="25" height="70" fill="#653c1e" stroke="#000" stroke-width="1"/>
      <rect x="935" y="155" width="15" height="70" fill="#573725" stroke="#000" stroke-width="1"/>
      <rect x="955" y="155" width="20" height="70" fill="#6a4c25" stroke="#000" stroke-width="1"/>
      <rect x="980" y="155" width="28" height="70" fill="#734a24" stroke="#000" stroke-width="1"/>
      <rect x="1013" y="155" width="17" height="70" fill="#5d3d25" stroke="#000" stroke-width="1"/>
      <rect x="1035" y="155" width="22" height="70" fill="#694529" stroke="#000" stroke-width="1"/>
      <rect x="1062" y="155" width="35" height="70" fill="#7d4925" stroke="#000" stroke-width="1"/>
      <rect x="1102" y="155" width="25" height="70" fill="#694529" stroke="#000" stroke-width="1"/>
    </g>
    
    <!-- Writing desk in center -->
    <rect x="450" y="350" width="300" height="150" fill="#3a2915" stroke="#281d0f" stroke-width="3"/>
    <rect x="455" y="353" width="290" height="10" fill="#483420"/>
    <rect x="460" y="370" width="280" height="120" fill="#4f3a25"/>
    
    <!-- Desk legs -->
    <rect x="465" y="500" width="30" height="50" fill="#362212"/>
    <rect x="705" y="500" width="30" height="50" fill="#362212"/>
    
    <!-- Open book on desk -->
    <g transform="translate(525, 400)">
      <rect x="-40" y="-20" width="80" height="40" fill="#d9c49a" stroke="#a39060" stroke-width="1"/>
      <rect x="-37" y="-17" width="34" height="34" fill="#efe8d4" stroke="#c2b085" stroke-width="0.5"/>
      <rect x="3" y="-17" width="34" height="34" fill="#efe8d4" stroke="#c2b085" stroke-width="0.5"/>
      
      <!-- Simulated text on pages -->
      <g fill="#553720" opacity="0.8">
        <rect x="-32" y="-12" width="24" height="1"/>
        <rect x="-32" y="-8" width="20" height="1"/>
        <rect x="-32" y="-4" width="22" height="1"/>
        <rect x="-32" y="0" width="15" height="1"/>
        <rect x="-32" y="4" width="24" height="1"/>
        <rect x="-32" y="8" width="18" height="1"/>
        <rect x="-32" y="12" width="22" height="1"/>
        
        <rect x="8" y="-12" width="24" height="1"/>
        <rect x="8" y="-8" width="20" height="1"/>
        <rect x="8" y="-4" width="22" height="1"/>
        <rect x="8" y="0" width="15" height="1"/>
        <rect x="8" y="4" width="24" height="1"/>
        <rect x="8" y="8" width="18" height="1"/>
        <rect x="8" y="12" width="22" height="1"/>
      </g>
    </g>
    
    <!-- Quill and inkwell -->
    <g transform="translate(650, 400)">
      <circle cx="0" cy="0" r="10" fill="#371e12" stroke="#1a0e09" stroke-width="1"/>
      <polygon points="15,-10 -5,15 -2,18 20,-5" fill="#d9d2c5" stroke="#aba499" stroke-width="0.5"/>
    </g>
    
    <!-- Scroll -->
    <g transform="translate(470, 410)">
      <rect x="-20" y="-10" width="40" height="20" fill="#d0c59c" stroke="#a39060" stroke-width="1" rx="5" ry="5"/>
      <circle cx="-20" cy="0" r="10" fill="#d0c59c" stroke="#a39060" stroke-width="1"/>
      <circle cx="20" cy="0" r="10" fill="#d0c59c" stroke="#a39060" stroke-width="1"/>
    </g>
    
    <!-- Candle holder -->
    <g transform="translate(700, 380)">
      <circle cx="0" cy="0" r="8" fill="#6e5c30" stroke="#4d3f21" stroke-width="1"/>
      <rect x="-1" y="-15" width="2" height="15" fill="#eae1c5"/>
      <ellipse cx="0" cy="-15" rx="2" ry="1" fill="#f3da82"/>
      <ellipse cx="0" cy="-16" rx="1" ry="2" fill="#f0c446" opacity="0.7"/>
      <ellipse cx="0" cy="-16" rx="4" ry="4" fill="#f0c446" opacity="0.1"/>
    </g>
    
    <!-- Arched window -->
    <g>
      <path d="M550,100 L650,100 L650,200 A50,50 0 0,1 550,200 Z" fill="#102030" stroke="#0d1a26" stroke-width="3"/>
      <path d="M560,110 L640,110 L640,190 A40,40 0 0,1 560,190 Z" fill="#1a3552" stroke="#0d1a26" stroke-width="1"/>
      <path d="M570,120 L590,120 L590,180 L570,180 Z" fill="#264a73" stroke="#1a3552" stroke-width="1"/>
      <path d="M600,120 L630,120 L630,180 L600,180 Z" fill="#264a73" stroke="#1a3552" stroke-width="1"/>
      <path d="M590,120 L600,120 L600,180 L590,180 Z" fill="#1a3552" stroke="#102030" stroke-width="1"/>
    </g>
    
    <!-- Subtle light beams through window -->
    <g opacity="0.1">
      <polygon points="570,120 590,180 550,200" fill="#f0f0f0"/>
      <polygon points="600,120 630,180 650,200" fill="#f0f0f0"/>
    </g>
    
    <!-- Dust particles in light beam (very subtle) -->
    <g fill="#ffffff" opacity="0.2">
      <circle cx="580" cy="150" r="0.5"/>
      <circle cx="575" cy="160" r="0.3"/>
      <circle cx="585" cy="170" r="0.4"/>
      <circle cx="570" cy="180" r="0.5"/>
      <circle cx="590" cy="140" r="0.3"/>
      
      <circle cx="610" cy="150" r="0.5"/>
      <circle cx="615" cy="160" r="0.3"/>
      <circle cx="605" cy="170" r="0.4"/>
      <circle cx="620" cy="180" r="0.5"/>
      <circle cx="600" cy="140" r="0.3"/>
    </g>
  </g>
  
  <!-- Vignette border effect -->
  <rect width="1200" height="600" fill="url(#vignette)" opacity="0.5"/>
  
  <defs>
    <radialGradient id="vignette" cx="50%" cy="50%" r="50%" fx="50%" fy="50%">
      <stop offset="0%" stop-color="#000000" stop-opacity="0"/>
      <stop offset="90%" stop-color="#000000" stop-opacity="0.3"/>
      <stop offset="100%" stop-color="#000000" stop-opacity="0.7"/>
    </radialGradient>
  </defs>
</svg>