<?xml version="1.0" encoding="UTF-8"?>
<svg xmlns="http://www.w3.org/2000/svg" viewBox="0 0 1200 800" width="1200" height="800">
  <!-- Sfondo del cielo e montagne -->
  <defs>
    <!-- Gradiente per il cielo -->
    <linearGradient id="skyGradient" x1="0%" y1="0%" x2="0%" y2="100%">
      <stop offset="0%" style="stop-color:#8c9cb1; stop-opacity:1" />
      <stop offset="100%" style="stop-color:#cbd5e1; stop-opacity:1" />
    </linearGradient>
    
    <!-- Gradiente per foresta misty -->
    <linearGradient id="forestGradient" x1="0%" y1="0%" x2="0%" y2="100%">
      <stop offset="0%" style="stop-color:#2d4b36; stop-opacity:1" />
      <stop offset="100%" style="stop-color:#1a2e21; stop-opacity:1" />
    </linearGradient>
    
    <!-- Gradiente per alberi vicini -->
    <linearGradient id="treeGradient" x1="0%" y1="0%" x2="0%" y2="100%">
      <stop offset="0%" style="stop-color:#3a6249; stop-opacity:1" />
      <stop offset="100%" style="stop-color:#234631; stop-opacity:1" />
    </linearGradient>
    
    <!-- Gradiente per l'armatura del cavaliere -->
    <linearGradient id="armorGradient" x1="0%" y1="0%" x2="100%" y2="100%">
      <stop offset="0%" style="stop-color:#d1d1d1; stop-opacity:1" />
      <stop offset="45%" style="stop-color:#ababab; stop-opacity:1" />
      <stop offset="55%" style="stop-color:#8a8a8a; stop-opacity:1" />
      <stop offset="100%" style="stop-color:#5a5a5a; stop-opacity:1" />
    </linearGradient>
    
    <!-- Gradiente per la pergamena -->
    <linearGradient id="scrollGradient" x1="0%" y1="0%" x2="0%" y2="100%">
      <stop offset="0%" style="stop-color:#f5e9d6; stop-opacity:1" />
      <stop offset="50%" style="stop-color:#e8d7b8; stop-opacity:1" />
      <stop offset="100%" style="stop-color:#d4c5a3; stop-opacity:1" />
    </linearGradient>
    
    <!-- Gradiente per il castello -->
    <linearGradient id="castleGradient" x1="0%" y1="0%" x2="0%" y2="100%">
      <stop offset="0%" style="stop-color:#8b8b8b; stop-opacity:1" />
      <stop offset="100%" style="stop-color:#5a5a5a; stop-opacity:1" />
    </linearGradient>
    
    <!-- Pattern per le pietre del castello -->
    <pattern id="stonePattern" width="20" height="20" patternUnits="userSpaceOnUse">
      <rect width="20" height="20" fill="#777777"/>
      <rect width="10" height="10" fill="#6a6a6a"/>
      <rect x="10" y="10" width="10" height="10" fill="#6a6a6a"/>
    </pattern>
    
    <!-- Filtro per la nebbia -->
    <filter id="fogFilter" x="0" y="0" width="100%" height="100%">
      <feGaussianBlur in="SourceGraphic" stdDeviation="5" result="blur"/>
      <feComponentTransfer>
        <feFuncA type="linear" slope="0.5" intercept="0"/>
      </feComponentTransfer>
    </filter>
  </defs>
  
  <!-- Sfondo -->
  <rect width="1200" height="800" fill="url(#skyGradient)"/>
  
  <!-- Montagne lontane -->
  <path d="M0,300 L100,220 L200,280 L300,150 L400,250 L500,180 L600,300 L700,220 L800,270 L900,200 L1000,280 L1100,230 L1200,300 L1200,400 L0,400 Z" fill="#667788" opacity="0.7"/>
  
  <!-- Foresta nella nebbia -->
  <path d="M0,330 C100,320 200,350 300,330 C400,310 500,340 600,320 C700,300 800,340 900,310 C1000,290 1100,320 1200,300 L1200,500 L0,500 Z" fill="url(#forestGradient)" opacity="0.8" filter="url(#fogFilter)"/>
  
  <!-- Castello in lontananza -->
  <g transform="translate(600, 250) scale(0.8)" opacity="0.8" filter="url(#fogFilter)">
    <!-- Base del castello -->
    <rect x="-150" y="-100" width="300" height="180" fill="url(#castleGradient)"/>
    
    <!-- Torri -->
    <rect x="-170" y="-150" width="40" height="230" fill="url(#stonePattern)"/>
    <rect x="130" y="-150" width="40" height="230" fill="url(#stonePattern)"/>
    <rect x="-100" y="-180" width="40" height="260" fill="url(#stonePattern)"/>
    <rect x="60" y="-180" width="40" height="260" fill="url(#stonePattern)"/>
    <rect x="-20" y="-220" width="40" height="300" fill="url(#stonePattern)"/>
    
    <!-- Tetti delle torri -->
    <polygon points="-170,-150 -150,-180 -130,-150" fill="#773333"/>
    <polygon points="130,-150 150,-180 170,-150" fill="#773333"/>
    <polygon points="-100,-180 -80,-210 -60,-180" fill="#773333"/>
    <polygon points="60,-180 80,-210 100,-180" fill="#773333"/>
    <polygon points="-20,-220 0,-250 20,-220" fill="#773333"/>
    
    <!-- Mura merlate -->
    <rect x="-150" y="-110" width="300" height="10" fill="#555555"/>
    <rect x="-140" y="-120" width="10" height="10" fill="#555555"/>
    <rect x="-120" y="-120" width="10" height="10" fill="#555555"/>
    <rect x="-100" y="-120" width="10" height="10" fill="#555555"/>
    <rect x="-80" y="-120" width="10" height="10" fill="#555555"/>
    <rect x="-60" y="-120" width="10" height="10" fill="#555555"/>
    <rect x="-40" y="-120" width="10" height="10" fill="#555555"/>
    <rect x="-20" y="-120" width="10" height="10" fill="#555555"/>
    <rect x="0" y="-120" width="10" height="10" fill="#555555"/>
    <rect x="20" y="-120" width="10" height="10" fill="#555555"/>
    <rect x="40" y="-120" width="10" height="10" fill="#555555"/>
    <rect x="60" y="-120" width="10" height="10" fill="#555555"/>
    <rect x="80" y="-120" width="10" height="10" fill="#555555"/>
    <rect x="100" y="-120" width="10" height="10" fill="#555555"/>
    <rect x="120" y="-120" width="10" height="10" fill="#555555"/>
  </g>
  
  <!-- Alberi in primo piano -->
  <g transform="translate(200, 480) scale(1.2)">
    <path d="M-150,0 C-120,-100 -90,-120 -60,-100 C-30,-150 0,-170 30,-150 C60,-200 90,-220 120,-180 C150,-150 180,-170 210,-120 C240,-160 270,-170 300,-130 C330,-170 360,-180 390,-140 C420,-170 450,-160 480,-110 C510,-140 540,-150 570,-100 C600,-130 630,-140 660,-90 L660,20 L-150,20 Z" fill="url(#treeGradient)"/>
  </g>
  
  <!-- Bandiera rossa a destra -->
  <g transform="translate(1000, 180)">
    <rect x="0" y="0" width="10" height="400" fill="#555555" stroke="#333333" stroke-width="1"/>
    <path d="M10,10 L100,10 L100,150 L10,150 Z" fill="#990000"/>
    <path d="M40,40 L70,60 L70,100 L40,120 Z" fill="#bd8c4d" opacity="0.9"/>
  </g>
  
  <!-- Bandiera rossa a sinistra -->
  <g transform="translate(200, 180)">
    <rect x="0" y="0" width="10" height="400" fill="#555555" stroke="#333333" stroke-width="1"/>
    <path d="M10,10 L100,10 L100,150 L10,150 Z" fill="#990000"/>
    <path d="M40,40 L70,60 L70,100 L40,120 Z" fill="#bd8c4d" opacity="0.9"/>
  </g>
  
  <!-- Cavaliere in armatura -->
  <g transform="translate(600, 380)">
    <!-- Torso -->
    <path d="M-60,0 C-50,-20 -40,-40 -20,-50 C-10,-70 0,-80 10,-70 C20,-80 30,-70 40,-50 C60,-40 70,-20 80,0 C90,40 90,80 80,120 C60,150 40,170 30,200 C20,220 10,240 0,260 C-10,240 -20,220 -30,200 C-40,170 -60,150 -80,120 C-90,80 -90,40 -80,0 Z" fill="url(#armorGradient)" stroke="#333333" stroke-width="2"/>
    
    <!-- Testa e elmo -->
    <ellipse cx="0" cy="-80" rx="30" ry="40" fill="url(#armorGradient)" stroke="#333333" stroke-width="2"/>
    <path d="M-20,-60 L-10,-75 L0,-80 L10,-75 L20,-60 L15,-55 L0,-50 L-15,-55 Z" fill="#262626"/>
    
    <!-- Braccio sinistro con pergamena -->
    <path d="M-70,30 C-90,50 -100,70 -110,90 C-120,110 -130,130 -140,150" fill="none" stroke="url(#armorGradient)" stroke-width="25" stroke-linecap="round"/>
    
    <!-- Pergamena tenuta dalla mano -->
    <g transform="translate(-160, 150) rotate(-10)">
      <rect x="-40" y="-60" width="80" height="120" fill="url(#scrollGradient)" stroke="#bd8c4d" stroke-width="1" rx="5" ry="5"/>
      <line x1="-30" y1="-50" x2="30" y2="-50" stroke="#a36f40" stroke-width="1" opacity="0.5"/>
      <line x1="-30" y1="-40" x2="30" y2="-40" stroke="#a36f40" stroke-width="1" opacity="0.5"/>
      <line x1="-30" y1="-30" x2="30" y2="-30" stroke="#a36f40" stroke-width="1" opacity="0.5"/>
      <line x1="-30" y1="-20" x2="20" y2="-20" stroke="#a36f40" stroke-width="1" opacity="0.5"/>
      <line x1="-30" y1="-10" x2="30" y2="-10" stroke="#a36f40" stroke-width="1" opacity="0.5"/>
      <line x1="-30" y1="0" x2="25" y2="0" stroke="#a36f40" stroke-width="1" opacity="0.5"/>
      <line x1="-30" y1="10" x2="30" y2="10" stroke="#a36f40" stroke-width="1" opacity="0.5"/>
      <line x1="-30" y1="20" x2="20" y2="20" stroke="#a36f40" stroke-width="1" opacity="0.5"/>
      <line x1="-30" y1="30" x2="30" y2="30" stroke="#a36f40" stroke-width="1" opacity="0.5"/>
    </g>
    
    <!-- Braccio destro -->
    <path d="M70,30 C90,50 100,70 110,90 C120,110 130,130 140,150" fill="none" stroke="url(#armorGradient)" stroke-width="25" stroke-linecap="round"/>
    
    <!-- Gambe -->
    <path d="M-30,200 C-40,230 -45,260 -50,290 C-55,320 -60,350 -65,380" fill="none" stroke="url(#armorGradient)" stroke-width="30" stroke-linecap="round"/>
    <path d="M30,200 C40,230 45,260 50,290 C55,320 60,350 65,380" fill="none" stroke="url(#armorGradient)" stroke-width="30" stroke-linecap="round"/>
    
    <!-- Cintura -->
    <rect x="-60" y="110" width="120" height="20" fill="#553311" stroke="#332211" stroke-width="1"/>
    
    <!-- Dettagli dell'armatura -->
    <path d="M-40,-10 L40,-10 M-50,20 L50,20 M-45,50 L45,50 M-40,80 L40,80" stroke="#444444" stroke-width="2" opacity="0.7"/>
    
    <!-- Spada alla cintura -->
    <rect x="65" y="100" width="10" height="80" fill="#553311" stroke="#332211" stroke-width="1" transform="rotate(-15, 70, 110)"/>
    <rect x="60" y="180" width="20" height="100" fill="#888888" stroke="#555555" stroke-width="1" transform="rotate(-15, 70, 110)"/>
  </g>
  
  <!-- Grande pergamena nella parte inferiore -->
  <g transform="translate(600, 650)">
    <!-- Pergamena principale -->
    <path d="M-500,0 C-470,-80 -400,-90 -350,-60 C-300,-100 -250,-110 -200,-80 C-150,-120 -100,-130 -50,-90 C0,-130 50,-140 100,-100 C150,-140 200,-150 250,-110 C300,-150 350,-160 400,-120 C450,-150 500,-120 500,-60 L500,60 C470,100 400,90 350,60 C300,100 250,110 200,80 C150,120 100,130 50,90 C0,130 -50,140 -100,100 C-150,140 -200,150 -250,110 C-300,150 -350,160 -400,120 C-450,150 -500,100 -500,60 Z" fill="url(#scrollGradient)" stroke="#bd8c4d" stroke-width="2"/>
    
    <!-- Pieghe e ombre della pergamena -->
    <path d="M-350,-60 C-340,-40 -330,-20 -350,0 C-370,20 -380,40 -350,60" fill="none" stroke="#a36f40" stroke-width="1" opacity="0.5"/>
    <path d="M-200,-80 C-190,-60 -180,-40 -200,-20 C-220,0 -230,20 -200,40 C-170,60 -160,80 -200,80" fill="none" stroke="#a36f40" stroke-width="1" opacity="0.5"/>
    <path d="M-50,-90 C-40,-70 -30,-50 -50,-30 C-70,-10 -80,10 -50,30 C-20,50 -10,70 -50,90" fill="none" stroke="#a36f40" stroke-width="1" opacity="0.5"/>
    <path d="M100,-100 C110,-80 120,-60 100,-40 C80,-20 70,0 100,20 C130,40 140,60 100,90" fill="none" stroke="#a36f40" stroke-width="1" opacity="0.5"/>
    <path d="M250,-110 C260,-90 270,-70 250,-50 C230,-30 220,-10 250,10 C280,30 290,50 250,80" fill="none" stroke="#a36f40" stroke-width="1" opacity="0.5"/>
    <path d="M400,-120 C410,-100 420,-80 400,-60 C380,-40 370,-20 400,0 C430,20 440,40 400,60 C360,80 350,100 400,120" fill="none" stroke="#a36f40" stroke-width="1" opacity="0.5"/>
  </g>
</svg>