<?xml version="1.0" encoding="UTF-8"?>
<svg xmlns="http://www.w3.org/2000/svg" viewBox="0 0 200 800" width="200" height="800">
  <defs>
    <!-- Metallic gradients -->
    <linearGradient id="bladeGradient" x1="0%" y1="0%" x2="100%" y2="0%">
      <stop offset="0%" style="stop-color:#a8a8a8"/>
      <stop offset="45%" style="stop-color:#d9d9d9"/>
      <stop offset="50%" style="stop-color:#ffffff"/>
      <stop offset="55%" style="stop-color:#d9d9d9"/>
      <stop offset="100%" style="stop-color:#a8a8a8"/>
    </linearGradient>
    
    <linearGradient id="handleGradient" x1="0%" y1="0%" x2="100%" y2="0%">
      <stop offset="0%" style="stop-color:#7a5a00"/>
      <stop offset="40%" style="stop-color:#bf9b30"/>
      <stop offset="60%" style="stop-color:#bf9b30"/>
      <stop offset="100%" style="stop-color:#7a5a00"/>
    </linearGradient>
    
    <linearGradient id="guardGradient" x1="0%" y1="0%" x2="100%" y2="0%">
      <stop offset="0%" style="stop-color:#7a5a00"/>
      <stop offset="40%" style="stop-color:#d4af37"/>
      <stop offset="60%" style="stop-color:#d4af37"/>
      <stop offset="100%" style="stop-color:#7a5a00"/>
    </linearGradient>
    
    <filter id="swordGlow" x="-50%" y="-50%" width="200%" height="200%">
      <feGaussianBlur stdDeviation="3" result="blur"/>
      <feComposite in="SourceGraphic" in2="blur" operator="over"/>
    </filter>
  </defs>
  
  <!-- Sword Blade -->
  <g>
    <!-- Blade shadow -->
    <path d="M95,50 L85,520 L115,520 L105,50 Z" fill="#6b6b6b" transform="translate(2,2)"/>
    
    <!-- Main blade -->
    <path d="M95,50 L85,520 L115,520 L105,50 Z" fill="url(#bladeGradient)"/>
    
    <!-- Blade ridge/fuller -->
    <path d="M100,60 L95,510 L105,510 L100,60 Z" fill="#eeeeee" opacity="0.6"/>
    
    <!-- Blade tip -->
    <path d="M95,50 L100,20 L105,50 Z" fill="url(#bladeGradient)"/>
    
    <!-- Blood groove -->
    <path d="M100,120 L98,450 L102,450 L100,120 Z" fill="#999999" opacity="0.5"/>
  </g>
  
  <!-- Crossguard/Hilt -->
  <g>
    <!-- Crossguard shadow -->
    <path d="M50,525 L150,525 L145,545 L55,545 Z" fill="#7a5a00" transform="translate(2,2)"/>
    
    <!-- Main crossguard -->
    <path d="M50,525 L150,525 L145,545 L55,545 Z" fill="url(#guardGradient)"/>
    
    <!-- Crossguard details -->
    <circle cx="100" cy="535" r="10" fill="#d4af37"/>
    <circle cx="100" cy="535" r="6" fill="#bf9b30"/>
    <circle cx="100" cy="535" r="3" fill="#ffe566"/>
    
    <!-- Decorative elements on crossguard -->
    <circle cx="70" cy="535" r="4" fill="#ffe566"/>
    <circle cx="130" cy="535" r="4" fill="#ffe566"/>
  </g>
  
  <!-- Handle/Grip -->
  <g>
    <!-- Handle shadow -->
    <path d="M80,550 L120,550 L125,650 L75,650 Z" fill="#5c4200" transform="translate(2,2)"/>
    
    <!-- Main handle -->
    <path d="M80,550 L120,550 L125,650 L75,650 Z" fill="url(#handleGradient)"/>
    
    <!-- Handle wrapping -->
    <path d="M80,560 L120,560 M80,575 L120,575 M80,590 L120,590 M80,605 L120,605 M80,620 L120,620 M80,635 L120,635" stroke="#5c4200" stroke-width="2"/>
    
    <!-- Handle detail at center -->
    <rect x="90" y="550" width="20" height="100" fill="#d4af37" opacity="0.2"/>
  </g>
  
  <!-- Pommel -->
  <g>
    <!-- Pommel shadow -->
    <path d="M75,650 L125,650 L115,680 L85,680 Z" fill="#7a5a00" transform="translate(2,2)"/>
    
    <!-- Main pommel -->
    <path d="M75,650 L125,650 L115,680 L85,680 Z" fill="url(#guardGradient)"/>
    
    <!-- Pommel gem/detail -->
    <circle cx="100" cy="665" r="8" fill="#7a5a00"/>
    <circle cx="100" cy="665" r="5" fill="#bf9b30"/>
    <circle cx="100" cy="665" r="3" fill="#ffe566"/>
  </g>
  
  <!-- Subtle glow effect -->
  <path d="M95,50 L85,520 L115,520 L105,50 Z" fill="white" opacity="0.05" filter="url(#swordGlow)"/>
</svg>