<?xml version="1.0" encoding="UTF-8"?>
<svg width="300px" height="300px" viewBox="0 0 300 300" version="1.1" xmlns="http://www.w3.org/2000/svg">
    <title>Medieval Pattern</title>
    <defs>
        <pattern id="MedievalPattern" x="0" y="0" width="100" height="100" patternUnits="userSpaceOnUse">
            <!-- Base pattern elements -->
            <path d="M0,0 L50,0 L50,50 L0,50 Z" fill="none" stroke="#8B7513" stroke-width="2" opacity="0.3"/>
            <path d="M50,0 L100,0 L100,50 L50,50 Z" fill="none" stroke="#8B7513" stroke-width="2" opacity="0.3"/>
            <path d="M0,50 L50,50 L50,100 L0,100 Z" fill="none" stroke="#8B7513" stroke-width="2" opacity="0.3"/>
            <path d="M50,50 L100,50 L100,100 L50,100 Z" fill="none" stroke="#8B7513" stroke-width="2" opacity="0.3"/>
            
            <!-- Decorative elements -->
            <circle cx="25" cy="25" r="8" fill="none" stroke="#8B7513" stroke-width="1.5" opacity="0.4"/>
            <circle cx="75" cy="25" r="8" fill="none" stroke="#8B7513" stroke-width="1.5" opacity="0.4"/>
            <circle cx="25" cy="75" r="8" fill="none" stroke="#8B7513" stroke-width="1.5" opacity="0.4"/>
            <circle cx="75" cy="75" r="8" fill="none" stroke="#8B7513" stroke-width="1.5" opacity="0.4"/>
            
            <!-- Fleur-de-lis element -->
            <path d="M25,20 C25,15 28,13 30,15 C32,17 30,23 30,25 C30,27 32,30 30,32 C28,34 22,34 20,32 C18,30 18,27 20,25 C22,23 20,17 22,15 C24,13 25,15 25,20 Z" fill="#8B7513" opacity="0.3"/>
            <path d="M75,20 C75,15 78,13 80,15 C82,17 80,23 80,25 C80,27 82,30 80,32 C78,34 72,34 70,32 C68,30 68,27 70,25 C72,23 70,17 72,15 C74,13 75,15 75,20 Z" fill="#8B7513" opacity="0.3"/>
            <path d="M25,70 C25,65 28,63 30,65 C32,67 30,73 30,75 C30,77 32,80 30,82 C28,84 22,84 20,82 C18,80 18,77 20,75 C22,73 20,67 22,65 C24,63 25,65 25,70 Z" fill="#8B7513" opacity="0.3"/>
            <path d="M75,70 C75,65 78,63 80,65 C82,67 80,73 80,75 C80,77 82,80 80,82 C78,84 72,84 70,82 C68,80 68,77 70,75 C72,73 70,67 72,65 C74,63 75,65 75,70 Z" fill="#8B7513" opacity="0.3"/>
            
            <!-- Cross elements -->
            <path d="M50,45 L50,55 M45,50 L55,50" stroke="#8B7513" stroke-width="2" opacity="0.4"/>
            <path d="M0,45 L0,55 M-5,50 L5,50" stroke="#8B7513" stroke-width="2" opacity="0.4"/>
            <path d="M100,45 L100,55 M95,50 L105,50" stroke="#8B7513" stroke-width="2" opacity="0.4"/>
            <path d="M50,-5 L50,5 M45,0 L55,0" stroke="#8B7513" stroke-width="2" opacity="0.4"/>
            <path d="M50,95 L50,105 M45,100 L55,100" stroke="#8B7513" stroke-width="2" opacity="0.4"/>
        </pattern>
    </defs>
    <rect width="300" height="300" fill="url(#MedievalPattern)"/>
</svg>