<?xml version="1.0" encoding="UTF-8"?>
<svg xmlns="http://www.w3.org/2000/svg" viewBox="0 0 1200 800" width="1200" height="800">
  <!-- Background color -->
  <rect width="1200" height="800" fill="#1a1a1a"/>
  
  <!-- Stars in the night sky -->
  <g opacity="0.8">
    <circle cx="120" cy="60" r="1" fill="#ffffff" opacity="0.7"/>
    <circle cx="350" cy="40" r="1.2" fill="#ffffff" opacity="0.8"/>
    <circle cx="600" cy="80" r="1.5" fill="#ffffff" opacity="0.9"/>
    <circle cx="800" cy="50" r="1" fill="#ffffff" opacity="0.7"/>
    <circle cx="950" cy="90" r="1.3" fill="#ffffff" opacity="0.8"/>
    <circle cx="1100" cy="70" r="1" fill="#ffffff" opacity="0.6"/>
    <circle cx="200" cy="120" r="1.1" fill="#ffffff" opacity="0.7"/>
    <circle cx="780" cy="120" r="2" fill="#ffffff"/>
  </g>
  
  <!-- Distant Mountains -->
  <path d="M0,500 L100,450 L200,480 L300,430 L400,490 L500,420 L600,470 L700,450 L800,470 L900,440 L1000,490 L1100,460 L1200,480 L1200,800 L0,800 Z" fill="#242424"/>
  
  <!-- Mid-distance Mountains -->
  <path d="M0,550 L120,510 L240,540 L360,500 L480,550 L600,510 L720,560 L840,520 L960,560 L1080,510 L1200,550 L1200,800 L0,800 Z" fill="#1f1f1f"/>
  
  <!-- Monastery Silhouette -->
  <g>
    <!-- Main building -->
    <rect x="400" y="520" width="400" height="150" fill="#101010"/>
    
    <!-- Roof -->
    <polygon points="400,520 600,460 800,520" fill="#0c0c0c"/>
    
    <!-- Bell tower -->
    <rect x="650" y="400" width="60" height="220" fill="#0f0f0f"/>
    <polygon points="650,400 680,370 710,400" fill="#0c0c0c"/>
    <rect x="660" y="370" width="30" height="30" fill="#0f0f0f"/>
    <rect x="670" y="340" width="10" height="30" fill="#0f0f0f"/>
    <circle cx="675" cy="330" r="5" fill="#0a0a0a"/>
    
    <!-- Abbey windows -->
    <rect x="420" y="550" width="20" height="40" fill="#232323"/>
    <path d="M420,550 Q430,540 440,550" fill="none" stroke="#333333" stroke-width="1"/>
    
    <rect x="460" y="550" width="20" height="40" fill="#232323"/>
    <path d="M460,550 Q470,540 480,550" fill="none" stroke="#333333" stroke-width="1"/>
    
    <rect x="500" y="550" width="20" height="40" fill="#232323"/>
    <path d="M500,550 Q510,540 520,550" fill="none" stroke="#333333" stroke-width="1"/>
    
    <rect x="540" y="550" width="20" height="40" fill="#232323"/>
    <path d="M540,550 Q550,540 560,550" fill="none" stroke="#333333" stroke-width="1"/>
    
    <rect x="580" y="550" width="20" height="40" fill="#232323"/>
    <path d="M580,550 Q590,540 600,550" fill="none" stroke="#333333" stroke-width="1"/>
    
    <rect x="620" y="550" width="20" height="40" fill="#232323"/>
    <path d="M620,550 Q630,540 640,550" fill="none" stroke="#333333" stroke-width="1"/>
    
    <rect x="660" y="550" width="20" height="40" fill="#232323"/>
    <path d="M660,550 Q670,540 680,550" fill="none" stroke="#333333" stroke-width="1"/>
    
    <rect x="700" y="550" width="20" height="40" fill="#232323"/>
    <path d="M700,550 Q710,540 720,550" fill="none" stroke="#333333" stroke-width="1"/>
    
    <rect x="740" y="550" width="20" height="40" fill="#232323"/>
    <path d="M740,550 Q750,540 760,550" fill="none" stroke="#333333" stroke-width="1"/>
    
    <!-- Rose window -->
    <circle cx="600" cy="500" r="30" fill="#1a1a1a" stroke="#0c0c0c" stroke-width="5"/>
    <circle cx="600" cy="500" r="20" fill="#1a1a1a" stroke="#0c0c0c" stroke-width="2"/>
    
    <!-- Bell tower windows -->
    <rect x="660" y="430" width="15" height="30" fill="#232323"/>
    <rect x="685" y="430" width="15" height="30" fill="#232323"/>
    <rect x="660" y="480" width="15" height="30" fill="#232323"/>
    <rect x="685" y="480" width="15" height="30" fill="#232323"/>
    
    <!-- Door -->
    <rect x="580" y="620" width="40" height="50" fill="#0a0a0a"/>
    <path d="M580,620 Q600,610 620,620" fill="none" stroke="#232323" stroke-width="2"/>
    
    <!-- Monastery walls -->
    <rect x="300" y="620" width="600" height="30" fill="#0c0c0c"/>
    
    <!-- Wall details -->
    <rect x="320" y="610" width="10" height="10" fill="#0c0c0c"/>
    <rect x="360" y="610" width="10" height="10" fill="#0c0c0c"/>
    <rect x="400" y="610" width="10" height="10" fill="#0c0c0c"/>
    <rect x="440" y="610" width="10" height="10" fill="#0c0c0c"/>
    <rect x="480" y="610" width="10" height="10" fill="#0c0c0c"/>
    <rect x="520" y="610" width="10" height="10" fill="#0c0c0c"/>
    <rect x="560" y="610" width="10" height="10" fill="#0c0c0c"/>
    <rect x="640" y="610" width="10" height="10" fill="#0c0c0c"/>
    <rect x="680" y="610" width="10" height="10" fill="#0c0c0c"/>
    <rect x="720" y="610" width="10" height="10" fill="#0c0c0c"/>
    <rect x="760" y="610" width="10" height="10" fill="#0c0c0c"/>
    <rect x="800" y="610" width="10" height="10" fill="#0c0c0c"/>
    <rect x="840" y="610" width="10" height="10" fill="#0c0c0c"/>
    <rect x="880" y="610" width="10" height="10" fill="#0c0c0c"/>
    
    <!-- Small chapel -->
    <rect x="320" y="570" width="60" height="50" fill="#0f0f0f"/>
    <polygon points="320,570 350,550 380,570" fill="#0a0a0a"/>
    <rect x="340" y="590" width="20" height="30" fill="#232323"/>
  </g>
  
  <!-- Foreground Silhouette -->
  <path d="M0,680 Q150,670 300,690 Q500,670 700,690 Q900,670 1200,690 L1200,800 L0,800 Z" fill="#060606"/>
  
  <!-- Mist effect -->
  <rect x="0" y="620" width="1200" height="80" fill="url(#mistGradient)" opacity="0.3"/>
  
  <!-- Gradient definitions -->
  <defs>
    <linearGradient id="mistGradient" x1="0%" y1="0%" x2="0%" y2="100%">
      <stop offset="0%" style="stop-color:#ffffff;stop-opacity:0.1"/>
      <stop offset="100%" style="stop-color:#ffffff;stop-opacity:0"/>
    </linearGradient>
  </defs>
</svg>